<?xml version="1.0" standalone="no"?>
<!DOCTYPE svg PUBLIC "-//W3C//DTD SVG 20010904//EN"
 "http://www.w3.org/TR/2001/REC-SVG-20010904/DTD/svg10.dtd">
<svg version="1.0" xmlns="http://www.w3.org/2000/svg"
 width="256.000000pt" height="256.000000pt" viewBox="0 0 256.000000 256.000000"
 preserveAspectRatio="xMidYMid meet">

<g transform="translate(0.000000,256.000000) scale(0.100000,-0.100000)"
fill="#000000" stroke="none">
<path d="M608 1775 c-20 -13 -45 -39 -56 -57 -22 -36 -125 -388 -125 -428 0
-39 31 -78 72 -90 20 -5 81 -10 136 -10 l100 -1 48 -69 48 -70 80 0 c43 0 79
4 79 8 0 5 -20 35 -45 66 -25 32 -45 62 -45 66 0 4 16 10 36 13 58 10 134 81
134 127 0 7 -75 10 -225 10 -124 0 -225 3 -225 8 0 4 20 75 43 157 l44 150
136 3 c76 1 137 -1 137 -5 0 -4 -16 -62 -35 -128 -19 -66 -35 -123 -35 -127 0
-5 40 -8 90 -8 l89 0 21 70 c11 39 29 101 40 139 23 77 25 138 7 162 -27 35
-53 39 -284 39 -226 0 -229 0 -265 -25z"/>
<path d="M1372 1718 c-12 -46 -22 -86 -22 -90 0 -5 110 -8 244 -8 230 0 245
-1 251 -19 8 -26 -9 -66 -37 -85 -18 -13 -49 -16 -146 -16 l-123 0 7 35 6 35
-110 0 -111 0 -22 -72 c-69 -231 -126 -438 -121 -443 3 -3 150 -5 327 -5 l321
0 53 26 c122 61 190 247 130 354 l-22 38 31 38 c40 49 62 113 62 175 0 40 -5
55 -29 81 l-29 33 -319 3 -318 3 -23 -83z m419 -368 c28 -16 24 -57 -10 -91
l-29 -29 -146 0 c-80 0 -146 4 -146 9 0 7 14 52 35 109 6 15 267 17 296 2z"/>
<path d="M775 935 c-47 -46 -22 -101 48 -106 46 -4 44 -6 48 63 2 22 -4 37
-20 50 -31 24 -47 23 -76 -7z m74 -9 c16 -19 10 -72 -6 -68 -7 1 -13 -2 -13
-8 0 -14 -33 -13 -48 2 -15 15 -15 61 0 76 16 16 53 15 67 -2z"/>
<path d="M1028 953 c-21 -6 -31 -32 -17 -49 5 -7 24 -16 40 -19 40 -9 41 -45
1 -45 -15 0 -34 6 -41 13 -11 10 -13 9 -9 -3 3 -9 19 -16 40 -18 64 -5 76 50
14 66 -38 10 -49 42 -14 42 13 0 29 -5 36 -12 9 -9 12 -9 12 0 0 10 -33 34
-42 31 -2 -1 -10 -3 -20 -6z"/>
<path d="M890 891 l0 -61 39 0 c44 0 67 20 55 47 -4 10 -8 29 -8 43 -1 22 -6
25 -43 28 l-43 3 0 -60z m75 29 c0 -9 -11 -16 -27 -18 -23 -3 -28 1 -28 18 0
17 5 21 28 18 16 -2 27 -9 27 -18z m3 -57 c3 -20 -1 -23 -27 -23 -27 0 -31 4
-31 26 0 22 4 25 28 22 19 -2 28 -9 30 -25z"/>
<path d="M1127 943 c19 -4 23 -12 26 -61 l3 -57 2 57 c2 50 5 57 25 61 12 2 0
4 -28 4 -27 0 -40 -2 -28 -4z"/>
<path d="M1231 895 c-24 -64 -26 -75 -8 -53 18 25 54 26 71 3 9 -11 16 -15 16
-10 0 19 -38 109 -48 113 -6 2 -20 -22 -31 -53z m39 26 c0 -5 3 -16 6 -25 4
-12 0 -16 -16 -16 -16 0 -20 4 -16 16 3 9 6 20 6 25 0 5 5 9 10 9 6 0 10 -4
10 -9z"/>
<path d="M1331 888 c1 -35 4 -51 6 -35 4 23 9 27 39 27 30 0 34 -3 34 -25 0
-14 3 -25 8 -25 5 0 8 72 3 113 -1 4 -21 7 -46 7 l-45 0 1 -62z m79 32 c0 -12
-9 -22 -24 -26 -31 -7 -46 1 -46 27 0 15 7 19 35 19 28 0 35 -4 35 -20z"/>
<path d="M1457 943 c19 -4 23 -12 26 -61 l3 -57 2 57 c2 50 5 57 25 61 12 2 0
4 -28 4 -27 0 -40 -2 -28 -4z"/>
<path d="M1550 890 l0 -60 48 2 47 1 -42 4 c-37 4 -42 7 -39 26 2 16 12 24 37
28 l34 6 -37 2 c-31 1 -38 5 -38 20 0 16 8 21 43 24 l42 4 -47 1 -48 2 0 -60z"/>
<path d="M1660 891 c0 -34 4 -61 10 -61 6 0 10 11 10 25 0 21 5 25 29 25 23 0
32 -6 39 -27 8 -24 10 -18 9 32 l-2 60 -47 3 -48 3 0 -60z m86 38 c8 -14 -4
-25 -38 -33 -25 -6 -28 -4 -28 19 0 21 5 25 29 25 17 0 33 -5 37 -11z"/>
</g>
</svg>
